<mxfile host="app.diagrams.net" modified="2024-05-03T06:46:42.988Z" agent="Mozilla/5.0 (Windows NT 10.0; Win64; x64) AppleWebKit/537.36 (KHTML, like Gecko) Chrome/122.0.0.0 YaBrowser/24.4.0.0 Safari/537.36" etag="_djVyR5N1GUR4ImLa_d0" version="24.3.1" type="device">
  <diagram name="Страница — 1" id="qD9a2uQzM58jKyfptVqL">
    <mxGraphModel dx="2420" dy="852" grid="1" gridSize="10" guides="1" tooltips="1" connect="1" arrows="1" fold="1" page="1" pageScale="1" pageWidth="827" pageHeight="1169" math="0" shadow="0">
      <root>
        <mxCell id="0" />
        <mxCell id="1" parent="0" />
        <mxCell id="t3ONwPED8ULluydBsEeW-1" value="Приобретение ТС" style="rounded=0;whiteSpace=wrap;html=1;fontSize=23;" parent="1" vertex="1">
          <mxGeometry x="434" y="380" width="240" height="100" as="geometry" />
        </mxCell>
        <mxCell id="t3ONwPED8ULluydBsEeW-2" value="" style="endArrow=classic;html=1;rounded=0;entryX=0;entryY=0.5;entryDx=0;entryDy=0;" parent="1" target="t3ONwPED8ULluydBsEeW-1" edge="1">
          <mxGeometry width="50" height="50" relative="1" as="geometry">
            <mxPoint x="260" y="430" as="sourcePoint" />
            <mxPoint x="310" y="405" as="targetPoint" />
          </mxGeometry>
        </mxCell>
        <mxCell id="t3ONwPED8ULluydBsEeW-3" value="" style="endArrow=classic;html=1;rounded=0;entryX=0;entryY=0.5;entryDx=0;entryDy=0;" parent="1" edge="1">
          <mxGeometry width="50" height="50" relative="1" as="geometry">
            <mxPoint x="674" y="429.5" as="sourcePoint" />
            <mxPoint x="848" y="429.5" as="targetPoint" />
          </mxGeometry>
        </mxCell>
        <mxCell id="m1Rp-SE6Qbz_XijWUfVs-2" value="" style="endArrow=classic;html=1;rounded=0;" parent="1" edge="1">
          <mxGeometry width="50" height="50" relative="1" as="geometry">
            <mxPoint x="500" y="290" as="sourcePoint" />
            <mxPoint x="500" y="380" as="targetPoint" />
          </mxGeometry>
        </mxCell>
        <mxCell id="m1Rp-SE6Qbz_XijWUfVs-3" value="" style="endArrow=classic;html=1;rounded=0;" parent="1" edge="1">
          <mxGeometry width="50" height="50" relative="1" as="geometry">
            <mxPoint x="620" y="290" as="sourcePoint" />
            <mxPoint x="620" y="380" as="targetPoint" />
          </mxGeometry>
        </mxCell>
        <mxCell id="m1Rp-SE6Qbz_XijWUfVs-4" value="" style="endArrow=classic;html=1;rounded=0;" parent="1" edge="1">
          <mxGeometry width="50" height="50" relative="1" as="geometry">
            <mxPoint x="493.41" y="570" as="sourcePoint" />
            <mxPoint x="493.41" y="480" as="targetPoint" />
          </mxGeometry>
        </mxCell>
        <mxCell id="m1Rp-SE6Qbz_XijWUfVs-5" value="" style="endArrow=classic;html=1;rounded=0;" parent="1" edge="1">
          <mxGeometry width="50" height="50" relative="1" as="geometry">
            <mxPoint x="613.4100000000001" y="570" as="sourcePoint" />
            <mxPoint x="613.4100000000001" y="480" as="targetPoint" />
          </mxGeometry>
        </mxCell>
        <mxCell id="m1Rp-SE6Qbz_XijWUfVs-6" value="Ожидание доставки" style="text;html=1;align=center;verticalAlign=middle;whiteSpace=wrap;rounded=0;fontSize=16;rotation=-45;" parent="1" vertex="1">
          <mxGeometry x="380" y="250" width="210" height="30" as="geometry" />
        </mxCell>
        <mxCell id="m1Rp-SE6Qbz_XijWUfVs-7" value="подписание документа на нового собственника" style="text;html=1;align=center;verticalAlign=middle;whiteSpace=wrap;rounded=0;fontSize=16;rotation=-45;" parent="1" vertex="1">
          <mxGeometry x="510" y="240" width="210" height="30" as="geometry" />
        </mxCell>
        <mxCell id="m1Rp-SE6Qbz_XijWUfVs-8" value="потенциальный покупатель" style="text;html=1;align=center;verticalAlign=middle;whiteSpace=wrap;rounded=0;fontSize=16;" parent="1" vertex="1">
          <mxGeometry x="30" y="415" width="210" height="30" as="geometry" />
        </mxCell>
        <mxCell id="m1Rp-SE6Qbz_XijWUfVs-9" value="договоренность с продавцом" style="text;html=1;align=center;verticalAlign=middle;whiteSpace=wrap;rounded=0;fontSize=16;" parent="1" vertex="1">
          <mxGeometry x="430" y="580" width="130" height="30" as="geometry" />
        </mxCell>
        <mxCell id="m1Rp-SE6Qbz_XijWUfVs-10" value="взнос, а после конечная оплата" style="text;html=1;align=center;verticalAlign=middle;whiteSpace=wrap;rounded=0;fontSize=16;" parent="1" vertex="1">
          <mxGeometry x="580" y="580" width="160" height="30" as="geometry" />
        </mxCell>
        <mxCell id="m1Rp-SE6Qbz_XijWUfVs-11" value="имеет импортное авто" style="text;html=1;align=center;verticalAlign=middle;whiteSpace=wrap;rounded=0;fontSize=16;" parent="1" vertex="1">
          <mxGeometry x="850" y="415" width="210" height="30" as="geometry" />
        </mxCell>
        <mxCell id="mZaVRYP02iY4yXCvRnx1-1" value="Ожидание" style="rounded=0;whiteSpace=wrap;html=1;fontSize=23;" parent="1" vertex="1">
          <mxGeometry x="234" y="1050" width="240" height="100" as="geometry" />
        </mxCell>
        <mxCell id="mZaVRYP02iY4yXCvRnx1-3" value="" style="endArrow=classic;html=1;rounded=0;entryX=0;entryY=0.5;entryDx=0;entryDy=0;exitX=1;exitY=0.5;exitDx=0;exitDy=0;" parent="1" target="mZaVRYP02iY4yXCvRnx1-27" edge="1" source="mZaVRYP02iY4yXCvRnx1-1">
          <mxGeometry width="50" height="50" relative="1" as="geometry">
            <mxPoint x="514" y="1100" as="sourcePoint" />
            <mxPoint x="688" y="1100" as="targetPoint" />
            <Array as="points">
              <mxPoint x="650" y="1101" />
              <mxPoint x="650" y="1330" />
            </Array>
          </mxGeometry>
        </mxCell>
        <mxCell id="mZaVRYP02iY4yXCvRnx1-4" value="" style="endArrow=classic;html=1;rounded=0;" parent="1" edge="1">
          <mxGeometry width="50" height="50" relative="1" as="geometry">
            <mxPoint x="350" y="960" as="sourcePoint" />
            <mxPoint x="350" y="1050" as="targetPoint" />
          </mxGeometry>
        </mxCell>
        <mxCell id="mZaVRYP02iY4yXCvRnx1-6" value="" style="endArrow=classic;html=1;rounded=0;" parent="1" edge="1">
          <mxGeometry width="50" height="50" relative="1" as="geometry">
            <mxPoint x="293.41" y="1240" as="sourcePoint" />
            <mxPoint x="293.41" y="1150" as="targetPoint" />
          </mxGeometry>
        </mxCell>
        <mxCell id="mZaVRYP02iY4yXCvRnx1-7" value="" style="endArrow=classic;html=1;rounded=0;" parent="1" edge="1">
          <mxGeometry width="50" height="50" relative="1" as="geometry">
            <mxPoint x="413.4100000000001" y="1240" as="sourcePoint" />
            <mxPoint x="413.4100000000001" y="1150" as="targetPoint" />
          </mxGeometry>
        </mxCell>
        <mxCell id="mZaVRYP02iY4yXCvRnx1-14" value="Организация" style="rounded=0;whiteSpace=wrap;html=1;fontSize=23;" parent="1" vertex="1">
          <mxGeometry x="-376" y="860" width="240" height="100" as="geometry" />
        </mxCell>
        <mxCell id="mZaVRYP02iY4yXCvRnx1-15" value="" style="endArrow=classic;html=1;rounded=0;entryX=0;entryY=0.5;entryDx=0;entryDy=0;" parent="1" target="mZaVRYP02iY4yXCvRnx1-14" edge="1">
          <mxGeometry width="50" height="50" relative="1" as="geometry">
            <mxPoint x="-550" y="910" as="sourcePoint" />
            <mxPoint x="-500" y="885" as="targetPoint" />
          </mxGeometry>
        </mxCell>
        <mxCell id="mZaVRYP02iY4yXCvRnx1-16" value="" style="endArrow=classic;html=1;rounded=0;entryX=0;entryY=0.5;entryDx=0;entryDy=0;" parent="1" target="mZaVRYP02iY4yXCvRnx1-1" edge="1">
          <mxGeometry width="50" height="50" relative="1" as="geometry">
            <mxPoint x="-136" y="909.5" as="sourcePoint" />
            <mxPoint x="38" y="909.5" as="targetPoint" />
            <Array as="points">
              <mxPoint x="130" y="910" />
              <mxPoint x="130" y="1100" />
            </Array>
          </mxGeometry>
        </mxCell>
        <mxCell id="mZaVRYP02iY4yXCvRnx1-18" value="" style="endArrow=classic;html=1;rounded=0;" parent="1" edge="1">
          <mxGeometry width="50" height="50" relative="1" as="geometry">
            <mxPoint x="-256.67" y="770" as="sourcePoint" />
            <mxPoint x="-256.67" y="860" as="targetPoint" />
          </mxGeometry>
        </mxCell>
        <mxCell id="mZaVRYP02iY4yXCvRnx1-20" value="" style="endArrow=classic;html=1;rounded=0;" parent="1" edge="1">
          <mxGeometry width="50" height="50" relative="1" as="geometry">
            <mxPoint x="-256.6699999999999" y="1050" as="sourcePoint" />
            <mxPoint x="-256.6699999999999" y="960" as="targetPoint" />
          </mxGeometry>
        </mxCell>
        <mxCell id="mZaVRYP02iY4yXCvRnx1-21" value="покупатель сходится на мнении какое ему нужно ТС" style="text;html=1;align=center;verticalAlign=middle;whiteSpace=wrap;rounded=0;fontSize=16;rotation=0;" parent="1" vertex="1">
          <mxGeometry x="-396" y="1060" width="280" height="30" as="geometry" />
        </mxCell>
        <mxCell id="mZaVRYP02iY4yXCvRnx1-23" value="потенциальный покупатель" style="text;html=1;align=center;verticalAlign=middle;whiteSpace=wrap;rounded=0;fontSize=16;" parent="1" vertex="1">
          <mxGeometry x="-780" y="895" width="210" height="30" as="geometry" />
        </mxCell>
        <mxCell id="mZaVRYP02iY4yXCvRnx1-24" value="договоренность с продавцом" style="text;html=1;align=center;verticalAlign=middle;whiteSpace=wrap;rounded=0;fontSize=16;" parent="1" vertex="1">
          <mxGeometry x="370" y="1250" width="130" height="30" as="geometry" />
        </mxCell>
        <mxCell id="mZaVRYP02iY4yXCvRnx1-25" value="залог за ТС" style="text;html=1;align=center;verticalAlign=middle;whiteSpace=wrap;rounded=0;fontSize=16;" parent="1" vertex="1">
          <mxGeometry x="220" y="1250" width="160" height="30" as="geometry" />
        </mxCell>
        <mxCell id="mZaVRYP02iY4yXCvRnx1-27" value="Приобретение ТС" style="rounded=0;whiteSpace=wrap;html=1;fontSize=23;" parent="1" vertex="1">
          <mxGeometry x="754" y="1280" width="240" height="100" as="geometry" />
        </mxCell>
        <mxCell id="mZaVRYP02iY4yXCvRnx1-29" value="" style="endArrow=classic;html=1;rounded=0;entryX=0;entryY=0.5;entryDx=0;entryDy=0;" parent="1" edge="1">
          <mxGeometry width="50" height="50" relative="1" as="geometry">
            <mxPoint x="994" y="1329.5" as="sourcePoint" />
            <mxPoint x="1168" y="1329.5" as="targetPoint" />
          </mxGeometry>
        </mxCell>
        <mxCell id="mZaVRYP02iY4yXCvRnx1-30" value="" style="endArrow=classic;html=1;rounded=0;" parent="1" edge="1">
          <mxGeometry width="50" height="50" relative="1" as="geometry">
            <mxPoint x="820" y="1190" as="sourcePoint" />
            <mxPoint x="820" y="1280" as="targetPoint" />
          </mxGeometry>
        </mxCell>
        <mxCell id="mZaVRYP02iY4yXCvRnx1-31" value="" style="endArrow=classic;html=1;rounded=0;" parent="1" edge="1">
          <mxGeometry width="50" height="50" relative="1" as="geometry">
            <mxPoint x="940" y="1190" as="sourcePoint" />
            <mxPoint x="940" y="1280" as="targetPoint" />
          </mxGeometry>
        </mxCell>
        <mxCell id="mZaVRYP02iY4yXCvRnx1-33" value="" style="endArrow=classic;html=1;rounded=0;" parent="1" edge="1">
          <mxGeometry width="50" height="50" relative="1" as="geometry">
            <mxPoint x="878.4100000000001" y="1470" as="sourcePoint" />
            <mxPoint x="878.4100000000001" y="1380" as="targetPoint" />
          </mxGeometry>
        </mxCell>
        <mxCell id="mZaVRYP02iY4yXCvRnx1-34" value="Ожидание доставки" style="text;html=1;align=center;verticalAlign=middle;whiteSpace=wrap;rounded=0;fontSize=16;rotation=-45;" parent="1" vertex="1">
          <mxGeometry x="700" y="1150" width="210" height="30" as="geometry" />
        </mxCell>
        <mxCell id="mZaVRYP02iY4yXCvRnx1-35" value="подписание документа на нового собственника" style="text;html=1;align=center;verticalAlign=middle;whiteSpace=wrap;rounded=0;fontSize=16;rotation=-45;" parent="1" vertex="1">
          <mxGeometry x="830" y="1140" width="210" height="30" as="geometry" />
        </mxCell>
        <mxCell id="mZaVRYP02iY4yXCvRnx1-38" value="доплата оставшееся суммы" style="text;html=1;align=center;verticalAlign=middle;whiteSpace=wrap;rounded=0;fontSize=16;" parent="1" vertex="1">
          <mxGeometry x="800" y="1480" width="160" height="30" as="geometry" />
        </mxCell>
        <mxCell id="mZaVRYP02iY4yXCvRnx1-39" value="имеет импортное авто" style="text;html=1;align=center;verticalAlign=middle;whiteSpace=wrap;rounded=0;fontSize=16;" parent="1" vertex="1">
          <mxGeometry x="1170" y="1315" width="210" height="30" as="geometry" />
        </mxCell>
        <mxCell id="mZaVRYP02iY4yXCvRnx1-41" value="отправка сотрудника в заграничную страну" style="text;html=1;align=center;verticalAlign=middle;whiteSpace=wrap;rounded=0;fontSize=16;rotation=0;" parent="1" vertex="1">
          <mxGeometry x="249" y="910" width="210" height="30" as="geometry" />
        </mxCell>
        <mxCell id="mZaVRYP02iY4yXCvRnx1-43" value="Рекомендации продавца" style="text;html=1;align=center;verticalAlign=middle;whiteSpace=wrap;rounded=0;fontSize=16;rotation=0;" parent="1" vertex="1">
          <mxGeometry x="-396" y="730" width="280" height="30" as="geometry" />
        </mxCell>
        <mxCell id="mZaVRYP02iY4yXCvRnx1-61" style="edgeStyle=orthogonalEdgeStyle;rounded=0;orthogonalLoop=1;jettySize=auto;html=1;entryX=0.5;entryY=0;entryDx=0;entryDy=0;" parent="1" source="mZaVRYP02iY4yXCvRnx1-44" target="mZaVRYP02iY4yXCvRnx1-46" edge="1">
          <mxGeometry relative="1" as="geometry" />
        </mxCell>
        <mxCell id="mZaVRYP02iY4yXCvRnx1-44" value="Начало" style="ellipse;whiteSpace=wrap;html=1;fontSize=18;" parent="1" vertex="1">
          <mxGeometry x="2310" y="170" width="199" height="80" as="geometry" />
        </mxCell>
        <mxCell id="mZaVRYP02iY4yXCvRnx1-45" value="Конец" style="ellipse;whiteSpace=wrap;html=1;fontSize=22;" parent="1" vertex="1">
          <mxGeometry x="2310" y="1120" width="199" height="80" as="geometry" />
        </mxCell>
        <mxCell id="mZaVRYP02iY4yXCvRnx1-62" style="edgeStyle=orthogonalEdgeStyle;rounded=0;orthogonalLoop=1;jettySize=auto;html=1;entryX=0.5;entryY=0;entryDx=0;entryDy=0;" parent="1" source="mZaVRYP02iY4yXCvRnx1-46" target="mZaVRYP02iY4yXCvRnx1-47" edge="1">
          <mxGeometry relative="1" as="geometry" />
        </mxCell>
        <mxCell id="mZaVRYP02iY4yXCvRnx1-46" value="Покупатель заходит на сайт" style="rounded=0;whiteSpace=wrap;html=1;" parent="1" vertex="1">
          <mxGeometry x="2349.5" y="300" width="120" height="60" as="geometry" />
        </mxCell>
        <mxCell id="mZaVRYP02iY4yXCvRnx1-63" style="edgeStyle=orthogonalEdgeStyle;rounded=0;orthogonalLoop=1;jettySize=auto;html=1;entryX=0.5;entryY=0;entryDx=0;entryDy=0;" parent="1" source="mZaVRYP02iY4yXCvRnx1-47" target="mZaVRYP02iY4yXCvRnx1-48" edge="1">
          <mxGeometry relative="1" as="geometry" />
        </mxCell>
        <mxCell id="mZaVRYP02iY4yXCvRnx1-47" value="Ознакамливается о нас" style="rounded=0;whiteSpace=wrap;html=1;" parent="1" vertex="1">
          <mxGeometry x="2349.5" y="400" width="120" height="60" as="geometry" />
        </mxCell>
        <mxCell id="mZaVRYP02iY4yXCvRnx1-64" style="edgeStyle=orthogonalEdgeStyle;rounded=0;orthogonalLoop=1;jettySize=auto;html=1;entryX=0.5;entryY=0;entryDx=0;entryDy=0;" parent="1" source="mZaVRYP02iY4yXCvRnx1-48" target="mZaVRYP02iY4yXCvRnx1-50" edge="1">
          <mxGeometry relative="1" as="geometry" />
        </mxCell>
        <mxCell id="mZaVRYP02iY4yXCvRnx1-48" value="Интересуется автомобилями" style="rounded=0;whiteSpace=wrap;html=1;" parent="1" vertex="1">
          <mxGeometry x="2349.5" y="500" width="120" height="60" as="geometry" />
        </mxCell>
        <mxCell id="mZaVRYP02iY4yXCvRnx1-54" style="edgeStyle=orthogonalEdgeStyle;rounded=0;orthogonalLoop=1;jettySize=auto;html=1;entryX=0.5;entryY=0;entryDx=0;entryDy=0;" parent="1" source="mZaVRYP02iY4yXCvRnx1-50" target="mZaVRYP02iY4yXCvRnx1-53" edge="1">
          <mxGeometry relative="1" as="geometry" />
        </mxCell>
        <mxCell id="mZaVRYP02iY4yXCvRnx1-59" style="edgeStyle=orthogonalEdgeStyle;rounded=0;orthogonalLoop=1;jettySize=auto;html=1;entryX=0;entryY=0.5;entryDx=0;entryDy=0;" parent="1" source="mZaVRYP02iY4yXCvRnx1-50" target="mZaVRYP02iY4yXCvRnx1-51" edge="1">
          <mxGeometry relative="1" as="geometry" />
        </mxCell>
        <mxCell id="mZaVRYP02iY4yXCvRnx1-50" value="Интересуется ТС-ом&lt;div&gt;, но&amp;nbsp;&lt;span style=&quot;background-color: initial;&quot;&gt;цена кажется слишком высокой,&amp;nbsp;&lt;/span&gt;&lt;div style=&quot;font-size: 15px;&quot;&gt;но более-менее приемлемой?&lt;/div&gt;&lt;/div&gt;" style="rhombus;whiteSpace=wrap;html=1;fontSize=15;" parent="1" vertex="1">
          <mxGeometry x="2323.37" y="610" width="172.25" height="150" as="geometry" />
        </mxCell>
        <mxCell id="mZaVRYP02iY4yXCvRnx1-58" style="edgeStyle=orthogonalEdgeStyle;rounded=0;orthogonalLoop=1;jettySize=auto;html=1;entryX=0.5;entryY=1;entryDx=0;entryDy=0;" parent="1" source="mZaVRYP02iY4yXCvRnx1-51" target="mZaVRYP02iY4yXCvRnx1-56" edge="1">
          <mxGeometry relative="1" as="geometry" />
        </mxCell>
        <mxCell id="mZaVRYP02iY4yXCvRnx1-51" value="Покупатель добавляет ТС в избранное, наблюдая за ним: изменится ли цена" style="rounded=0;whiteSpace=wrap;html=1;" parent="1" vertex="1">
          <mxGeometry x="2560" y="645" width="140" height="80" as="geometry" />
        </mxCell>
        <mxCell id="mZaVRYP02iY4yXCvRnx1-55" style="edgeStyle=orthogonalEdgeStyle;rounded=0;orthogonalLoop=1;jettySize=auto;html=1;entryX=0.5;entryY=0;entryDx=0;entryDy=0;" parent="1" source="mZaVRYP02iY4yXCvRnx1-52" target="mZaVRYP02iY4yXCvRnx1-45" edge="1">
          <mxGeometry relative="1" as="geometry">
            <Array as="points">
              <mxPoint x="2050" y="1070" />
              <mxPoint x="2410" y="1070" />
            </Array>
          </mxGeometry>
        </mxCell>
        <mxCell id="mZaVRYP02iY4yXCvRnx1-52" value="Интересуется об организации покупки с продавцом" style="rounded=0;whiteSpace=wrap;html=1;" parent="1" vertex="1">
          <mxGeometry x="1980" y="940" width="140" height="80" as="geometry" />
        </mxCell>
        <mxCell id="mZaVRYP02iY4yXCvRnx1-57" style="edgeStyle=orthogonalEdgeStyle;rounded=0;orthogonalLoop=1;jettySize=auto;html=1;entryX=1;entryY=0.5;entryDx=0;entryDy=0;" parent="1" source="mZaVRYP02iY4yXCvRnx1-53" target="mZaVRYP02iY4yXCvRnx1-56" edge="1">
          <mxGeometry relative="1" as="geometry">
            <Array as="points">
              <mxPoint x="2800" y="835" />
              <mxPoint x="2800" y="580" />
            </Array>
          </mxGeometry>
        </mxCell>
        <mxCell id="mZaVRYP02iY4yXCvRnx1-60" style="edgeStyle=orthogonalEdgeStyle;rounded=0;orthogonalLoop=1;jettySize=auto;html=1;entryX=0.5;entryY=0;entryDx=0;entryDy=0;" parent="1" source="mZaVRYP02iY4yXCvRnx1-53" target="mZaVRYP02iY4yXCvRnx1-52" edge="1">
          <mxGeometry relative="1" as="geometry" />
        </mxCell>
        <mxCell id="mZaVRYP02iY4yXCvRnx1-53" value="Хочет купить его?" style="rhombus;whiteSpace=wrap;html=1;" parent="1" vertex="1">
          <mxGeometry x="2140" y="795" width="150" height="80" as="geometry" />
        </mxCell>
        <mxCell id="mZaVRYP02iY4yXCvRnx1-65" style="edgeStyle=orthogonalEdgeStyle;rounded=0;orthogonalLoop=1;jettySize=auto;html=1;entryX=0.5;entryY=0;entryDx=0;entryDy=0;" parent="1" source="mZaVRYP02iY4yXCvRnx1-56" target="mZaVRYP02iY4yXCvRnx1-50" edge="1">
          <mxGeometry relative="1" as="geometry" />
        </mxCell>
        <mxCell id="mZaVRYP02iY4yXCvRnx1-56" value="Присматривается к другим авто" style="rounded=0;whiteSpace=wrap;html=1;" parent="1" vertex="1">
          <mxGeometry x="2570" y="550" width="120" height="60" as="geometry" />
        </mxCell>
        <mxCell id="BH4B04rF24y-LLLz_uG6-7" style="edgeStyle=orthogonalEdgeStyle;rounded=0;orthogonalLoop=1;jettySize=auto;html=1;entryX=0.5;entryY=0;entryDx=0;entryDy=0;" edge="1" parent="1" source="BH4B04rF24y-LLLz_uG6-1" target="BH4B04rF24y-LLLz_uG6-2">
          <mxGeometry relative="1" as="geometry" />
        </mxCell>
        <mxCell id="BH4B04rF24y-LLLz_uG6-1" value="Владелец&amp;nbsp;&lt;div style=&quot;font-size: 16px;&quot;&gt;компании&lt;/div&gt;" style="rounded=0;whiteSpace=wrap;html=1;fontSize=16;" vertex="1" parent="1">
          <mxGeometry x="1410" y="330" width="120" height="60" as="geometry" />
        </mxCell>
        <mxCell id="BH4B04rF24y-LLLz_uG6-8" style="edgeStyle=orthogonalEdgeStyle;rounded=0;orthogonalLoop=1;jettySize=auto;html=1;entryX=0.5;entryY=0;entryDx=0;entryDy=0;" edge="1" parent="1" source="BH4B04rF24y-LLLz_uG6-2" target="BH4B04rF24y-LLLz_uG6-3">
          <mxGeometry relative="1" as="geometry" />
        </mxCell>
        <mxCell id="BH4B04rF24y-LLLz_uG6-9" style="edgeStyle=orthogonalEdgeStyle;rounded=0;orthogonalLoop=1;jettySize=auto;html=1;entryX=0.5;entryY=0;entryDx=0;entryDy=0;" edge="1" parent="1" source="BH4B04rF24y-LLLz_uG6-2" target="BH4B04rF24y-LLLz_uG6-5">
          <mxGeometry relative="1" as="geometry" />
        </mxCell>
        <mxCell id="BH4B04rF24y-LLLz_uG6-10" style="edgeStyle=orthogonalEdgeStyle;rounded=0;orthogonalLoop=1;jettySize=auto;html=1;entryX=0.5;entryY=0;entryDx=0;entryDy=0;" edge="1" parent="1" source="BH4B04rF24y-LLLz_uG6-2" target="BH4B04rF24y-LLLz_uG6-6">
          <mxGeometry relative="1" as="geometry" />
        </mxCell>
        <mxCell id="BH4B04rF24y-LLLz_uG6-2" value="Сайт по импорту" style="rounded=0;whiteSpace=wrap;html=1;fontSize=16;" vertex="1" parent="1">
          <mxGeometry x="1410" y="445" width="120" height="60" as="geometry" />
        </mxCell>
        <mxCell id="BH4B04rF24y-LLLz_uG6-3" value="Сотрудник" style="rounded=0;whiteSpace=wrap;html=1;fontSize=16;" vertex="1" parent="1">
          <mxGeometry x="1235" y="560" width="120" height="60" as="geometry" />
        </mxCell>
        <mxCell id="BH4B04rF24y-LLLz_uG6-5" value="Сотрудник" style="rounded=0;whiteSpace=wrap;html=1;fontSize=16;" vertex="1" parent="1">
          <mxGeometry x="1410" y="555" width="120" height="60" as="geometry" />
        </mxCell>
        <mxCell id="BH4B04rF24y-LLLz_uG6-6" value="Сотрудник" style="rounded=0;whiteSpace=wrap;html=1;fontSize=16;" vertex="1" parent="1">
          <mxGeometry x="1580" y="555" width="120" height="60" as="geometry" />
        </mxCell>
      </root>
    </mxGraphModel>
  </diagram>
</mxfile>
